<svg width="75" height="75" viewBox="0 0 75 75" fill="none" xmlns="http://www.w3.org/2000/svg">
<g filter="url(#filter0_d_90_42)">
<path d="M63.5 35.5C63.5 49.8594 51.8594 61.5 37.5 61.5C23.1406 61.5 11.5 49.8594 11.5 35.5C11.5 21.1406 23.1406 9.5 37.5 9.5C51.8594 9.5 63.5 21.1406 63.5 35.5Z" fill="#AFD355"/>
<path d="M63.5 35.5C63.5 49.8594 51.8594 61.5 37.5 61.5C23.1406 61.5 11.5 49.8594 11.5 35.5C11.5 21.1406 23.1406 9.5 37.5 9.5C51.8594 9.5 63.5 21.1406 63.5 35.5Z" stroke="#8CC540" stroke-width="3"/>
</g>
<path d="M54.5 24.5H20.5V47.5H54.5V24.5Z" stroke="white" stroke-width="3"/>
<path d="M20.5 24.5L38 36.5L54.5 24.5" stroke="white" stroke-width="3"/>
<defs>
<filter id="filter0_d_90_42" x="0" y="0" width="75" height="75" filterUnits="userSpaceOnUse" color-interpolation-filters="sRGB">
<feFlood flood-opacity="0" result="BackgroundImageFix"/>
<feColorMatrix in="SourceAlpha" type="matrix" values="0 0 0 0 0 0 0 0 0 0 0 0 0 0 0 0 0 0 127 0" result="hardAlpha"/>
<feOffset dy="2"/>
<feGaussianBlur stdDeviation="5"/>
<feComposite in2="hardAlpha" operator="out"/>
<feColorMatrix type="matrix" values="0 0 0 0 0 0 0 0 0 0 0 0 0 0 0 0 0 0 0.15 0"/>
<feBlend mode="normal" in2="BackgroundImageFix" result="effect1_dropShadow_90_42"/>
<feBlend mode="normal" in="SourceGraphic" in2="effect1_dropShadow_90_42" result="shape"/>
</filter>
</defs>
</svg>
