<svg width="108" height="50" viewBox="0 0 108 50" fill="none" xmlns="http://www.w3.org/2000/svg">
<g clip-path="url(#clip0_71_3)">
<path d="M99.8431 4.79797C98.5791 4.79797 97.3438 5.16916 96.2925 5.86462C95.2419 6.56006 94.4227 7.54854 93.9389 8.70506C93.4551 9.86152 93.3286 11.1341 93.5753 12.3618C93.822 13.5896 94.4303 14.7173 95.3244 15.6025C96.2178 16.4876 97.3566 17.0904 98.5963 17.3346C99.8361 17.5788 101.121 17.4535 102.289 16.9744C103.456 16.4954 104.455 15.6842 105.157 14.6434C105.859 13.6025 106.234 12.3789 106.234 11.1271C106.225 9.45107 105.549 7.84607 104.352 6.66095C103.156 5.47578 101.535 4.80629 99.8431 4.79797ZM99.8431 13.4119C99.39 13.4132 98.9465 13.2811 98.5695 13.0327C98.1924 12.7842 97.8978 12.4304 97.724 12.0161C97.5502 11.6018 97.5042 11.1457 97.5924 10.7056C97.6806 10.2655 97.8985 9.86114 98.2187 9.54392C98.5395 9.22664 98.9478 9.0107 99.392 8.92348C99.8361 8.83626 100.297 8.88164 100.715 9.05392C101.133 9.2262 101.491 9.51759 101.742 9.8912C101.992 10.2648 102.126 10.7037 102.125 11.1524C102.125 11.7516 101.884 12.3264 101.456 12.7501C101.029 13.1739 100.448 13.4119 99.8431 13.4119Z" fill="#8BC53F"/>
<path d="M13.328 0.39291C13.4056 0.383402 13.4844 0.391002 13.5586 0.415165C13.6329 0.439329 13.7009 0.479458 13.7577 0.532681C13.8145 0.585904 13.8587 0.650905 13.8871 0.723026C13.9156 0.795152 13.9276 0.872614 13.9223 0.949874V21.2853C13.9276 21.3626 13.9156 21.4401 13.8871 21.5122C13.8587 21.5843 13.8145 21.6493 13.7577 21.7025C13.7009 21.7558 13.6329 21.7959 13.5586 21.82C13.4844 21.8442 13.4056 21.8518 13.328 21.8423H12.5675C12.4915 21.8515 12.4143 21.8434 12.3418 21.8187C12.2693 21.7939 12.2035 21.7532 12.1493 21.6995C12.0951 21.6458 12.054 21.5806 12.029 21.5089C12.004 21.4371 11.9959 21.3606 12.0051 21.2853V2.12709H2.08705V21.2853C2.09635 21.3606 2.0882 21.4371 2.06324 21.5089C2.03826 21.5806 1.99711 21.6458 1.94292 21.6995C1.88872 21.7532 1.82289 21.7939 1.75043 21.8187C1.67797 21.8434 1.60077 21.8515 1.52469 21.8423H0.732261C0.656182 21.8515 0.578985 21.8434 0.506522 21.8187C0.434059 21.7939 0.368233 21.7532 0.314036 21.6995C0.259839 21.6458 0.218693 21.5806 0.193719 21.5089C0.168746 21.4371 0.160599 21.3606 0.169897 21.2853V0.949874C0.160599 0.874526 0.168746 0.79807 0.193719 0.726298C0.218693 0.654532 0.259839 0.58934 0.314036 0.535664C0.368233 0.481988 0.434059 0.441238 0.506522 0.416505C0.578985 0.391771 0.656182 0.383702 0.732261 0.39291H13.328Z" fill="#404041"/>
<path d="M37.8229 0.392908C37.899 0.3837 37.9762 0.391769 38.0486 0.416502C38.121 0.441236 38.1869 0.481986 38.2411 0.535662C38.2953 0.589338 38.3365 0.654532 38.3614 0.726298C38.3864 0.798064 38.3946 0.874519 38.3852 0.949867V21.2853C38.3946 21.3606 38.3864 21.4371 38.3614 21.5089C38.3365 21.5806 38.2953 21.6458 38.2411 21.6995C38.1869 21.7532 38.121 21.7939 38.0486 21.8187C37.9762 21.8434 37.899 21.8515 37.8229 21.8423H37.0304C36.9544 21.8515 36.8772 21.8434 36.8047 21.8187C36.7323 21.7939 36.6664 21.7532 36.6122 21.6995C36.558 21.6458 36.5169 21.5806 36.4919 21.5089C36.4669 21.4371 36.4588 21.3606 36.4681 21.2853V3.66506L26.8695 21.4815C26.8186 21.6054 26.7292 21.7101 26.6144 21.7806C26.4996 21.8511 26.3651 21.8838 26.2304 21.8739H25.1952C25.1191 21.8831 25.0419 21.8751 24.9695 21.8503C24.897 21.8256 24.8312 21.7848 24.777 21.7311C24.7228 21.6775 24.6816 21.6123 24.6566 21.5405C24.6317 21.4687 24.6235 21.3923 24.6328 21.317V0.949867C24.6235 0.874519 24.6317 0.798064 24.6566 0.726298C24.6816 0.654532 24.7228 0.589338 24.777 0.535662C24.8312 0.481986 24.897 0.441236 24.9695 0.416502C25.0419 0.391769 25.1191 0.3837 25.1952 0.392908H25.9876C26.0637 0.3837 26.1409 0.391769 26.2134 0.416502C26.2858 0.441236 26.3517 0.481986 26.4059 0.535662C26.46 0.589338 26.5012 0.654532 26.5261 0.726298C26.5511 0.798064 26.5593 0.874519 26.55 0.949867V18.5638L36.1358 0.78531C36.1868 0.661405 36.276 0.556679 36.3909 0.486176C36.5056 0.415674 36.6401 0.383021 36.7748 0.392908H37.8229Z" fill="#404041"/>
<path d="M55.627 0.392907C55.7725 0.370891 55.9209 0.406286 56.0404 0.49149C56.1599 0.576695 56.2409 0.704911 56.266 0.848601L62.9441 21.2157C63.0783 21.5765 62.9441 21.8486 62.484 21.8486H61.5254C61.3804 21.8613 61.2357 21.8215 61.1182 21.7365C61.0007 21.6515 60.9183 21.5272 60.8864 21.3866L59.3271 16.4752H50.5145L49.0255 21.3866C48.9869 21.5235 48.9028 21.6435 48.7869 21.7273C48.6709 21.8111 48.5299 21.8539 48.3865 21.8486H47.511C47.0828 21.8486 46.9167 21.5828 47.0509 21.2157L53.5309 0.848601C53.5603 0.707114 53.6423 0.581737 53.7607 0.497331C53.879 0.412924 54.0251 0.375653 54.1699 0.392907H55.627ZM50.981 14.7347H58.8222L54.8537 2.15873L50.981 14.7347Z" fill="#404041"/>
<path d="M84.5122 5.9562V6.64608C84.5122 10.7727 82.1989 13.1271 77.3037 13.1271C76.0301 13.1129 74.759 13.0051 73.5014 12.8043V21.2853C73.5103 21.3606 73.5026 21.4371 73.4777 21.5089C73.4521 21.5806 73.4113 21.6458 73.3569 21.6995C73.3026 21.7532 73.2368 21.7939 73.1646 21.8187C73.0924 21.8434 73.015 21.8515 72.939 21.8423H72.1466C72.0705 21.8515 71.9932 21.8434 71.921 21.8187C71.8481 21.7939 71.7823 21.7532 71.728 21.6995C71.6743 21.6458 71.6328 21.5806 71.6078 21.5089C71.5829 21.4371 71.5746 21.3606 71.5842 21.2853V0.722019C71.5842 0.361259 71.7184 0.196701 72.0124 0.165056C73.3352 0.0954354 74.9904 0.0321441 77.0737 0.000498507C82.1669 -0.0374762 84.5122 2.09544 84.5122 5.9562ZM73.5205 1.76632V11.1334C74.743 11.3417 75.9802 11.4518 77.2206 11.4625C80.8952 11.4625 82.6143 9.76 82.6143 6.58278V6.05746C82.6143 3.13974 80.9272 1.67139 77.0225 1.67139C75.5527 1.67139 74.3257 1.73468 73.5205 1.76632Z" fill="#404041"/>
<path d="M16.6447 49.9625C16.5686 49.9717 16.4914 49.9637 16.4189 49.9389C16.3465 49.9142 16.2806 49.8735 16.2265 49.8197C16.1723 49.7661 16.1311 49.7009 16.1061 49.6291C16.0811 49.5573 16.073 49.4809 16.0823 49.4056L15.9161 31.1651L10.35 47.241C10.3264 47.3859 10.2461 47.5156 10.1264 47.6022C10.0067 47.6887 9.85746 47.7249 9.71092 47.703H8.26666C8.12173 47.7158 7.97705 47.6759 7.85952 47.5909C7.742 47.5059 7.65956 47.3816 7.62761 47.241L2.05509 31.1334L1.88893 49.3739C1.90463 49.4534 1.90058 49.5356 1.87713 49.6132C1.85368 49.6908 1.81152 49.7616 1.7543 49.8196C1.69709 49.8775 1.62651 49.9207 1.54866 49.9456C1.47081 49.9706 1.38801 49.9763 1.30739 49.9625H0.566096C0.490015 49.9717 0.412817 49.9637 0.340354 49.9389C0.26789 49.9142 0.202065 49.8735 0.147868 49.8197C0.0936711 49.7661 0.0525253 49.7009 0.0275513 49.6291C0.00257735 49.5573 -0.00556931 49.4809 0.00372857 49.4056L0.201835 29.0701C0.192537 28.9947 0.200684 28.9183 0.225658 28.8466C0.250632 28.7748 0.291777 28.7096 0.345974 28.6559C0.400171 28.6022 0.465997 28.5615 0.53846 28.5368C0.610923 28.512 0.68812 28.5039 0.764199 28.5132H2.5855C2.73057 28.4944 2.8774 28.5311 2.99612 28.6157C3.11485 28.7004 3.19653 28.8266 3.22455 28.9689L9.03992 45.9689L14.8297 28.9689C14.8549 28.8252 14.9358 28.697 15.0553 28.6118C15.1748 28.5265 15.3233 28.4911 15.4688 28.5132H17.2837C17.3598 28.5039 17.437 28.512 17.5095 28.5368C17.582 28.5615 17.6478 28.6022 17.702 28.6559C17.7562 28.7096 17.7973 28.7748 17.8223 28.8466C17.8472 28.9183 17.8554 28.9947 17.8461 29.0701L18.0442 49.4056C18.0495 49.4828 18.0375 49.5603 18.009 49.6324C17.9806 49.7046 17.9364 49.7696 17.8796 49.8228C17.8227 49.8759 17.7548 49.9161 17.6805 49.9403C17.6062 49.9644 17.5275 49.972 17.4499 49.9625H16.6447Z" fill="#404041"/>
<path d="M35.0814 28.4815C35.2269 28.4595 35.3754 28.4949 35.4949 28.5801C35.6144 28.6653 35.6953 28.7935 35.7205 28.9372L42.3858 49.3296C42.52 49.6904 42.3858 49.9625 41.9257 49.9625H40.9671C40.8221 49.9753 40.6774 49.9354 40.5599 49.8504C40.4424 49.7654 40.3599 49.6411 40.328 49.5005L38.7687 44.5891H29.9562L28.4672 49.5005C28.4353 49.6411 28.3528 49.7654 28.2353 49.8504C28.1178 49.9354 27.9731 49.9753 27.8282 49.9625H26.9782C26.55 49.9625 26.3839 49.6967 26.5181 49.3296L32.9981 28.9372C33.0288 28.7964 33.1111 28.6719 33.2292 28.5877C33.3472 28.5036 33.4925 28.4658 33.6371 28.4815H35.0814ZM30.4547 42.8233H38.2895L34.3209 30.2473L30.4547 42.8233Z" fill="#404041"/>
<path d="M63.417 28.4815C63.8771 28.4815 64.0562 28.7727 63.7812 29.1714L57.6974 38.6651L64.7272 49.2094C64.9892 49.6018 64.7911 49.8992 64.3309 49.8992H63.2955C63.167 49.897 63.0412 49.8627 62.9295 49.7997C62.8179 49.7366 62.724 49.6468 62.6565 49.5385L56.2085 39.8359H52.9685V49.3992C52.9782 49.4728 52.9712 49.5475 52.9481 49.618C52.925 49.6885 52.8864 49.7531 52.835 49.807C52.7836 49.8609 52.7208 49.9028 52.651 49.9297C52.5812 49.9566 52.5063 49.9679 52.4316 49.9625H51.6137C51.5376 49.9717 51.4604 49.9637 51.3879 49.9389C51.3155 49.9142 51.2496 49.8735 51.1955 49.8197C51.1413 49.7661 51.1001 49.7009 51.0751 49.6291C51.0501 49.5573 51.042 49.4809 51.0513 49.4056V29.0385C51.042 28.9631 51.0501 28.8866 51.0751 28.8149C51.1001 28.7432 51.1413 28.678 51.1955 28.6242C51.2496 28.5706 51.3155 28.5298 51.3879 28.5051C51.4604 28.4804 51.5376 28.4723 51.6137 28.4815H52.4316C52.5078 28.4723 52.585 28.4804 52.6574 28.5051C52.7299 28.5298 52.7957 28.5706 52.8499 28.6242C52.9041 28.678 52.9453 28.7432 52.9702 28.8149C52.9952 28.8866 53.0033 28.9631 52.994 29.0385V38.0765H56.1382L61.9855 28.8423C62.053 28.7339 62.1468 28.6441 62.2585 28.5811C62.3702 28.518 62.496 28.4838 62.6245 28.4815H63.417Z" fill="#404041"/>
<path d="M83.1063 28.4815C83.1824 28.4723 83.2597 28.4804 83.3319 28.5051C83.4041 28.5298 83.4699 28.5706 83.5243 28.6242C83.5786 28.678 83.6195 28.7432 83.6451 28.8149C83.67 28.8866 83.6776 28.9631 83.6687 29.0385V29.6714C83.6776 29.7467 83.67 29.8232 83.6451 29.8949C83.6195 29.9667 83.5786 30.0319 83.5243 30.0856C83.4699 30.1393 83.4041 30.18 83.3319 30.2047C83.2597 30.2295 83.1824 30.2375 83.1063 30.2284H74.7986V38.1714H82.4673C82.5433 38.1622 82.6206 38.1703 82.6929 38.195C82.7651 38.2197 82.8309 38.2604 82.8852 38.3141C82.9395 38.3678 82.9804 38.433 83.006 38.5048C83.0309 38.5765 83.0386 38.653 83.0296 38.7284V39.317C83.0386 39.3923 83.0309 39.4687 83.006 39.5405C82.9804 39.6123 82.9395 39.6775 82.8852 39.7311C82.8309 39.7849 82.7651 39.8256 82.6929 39.8503C82.6206 39.8751 82.5433 39.8831 82.4673 39.8739H74.7986V48.1904H83.1063C83.1817 48.1824 83.2584 48.1913 83.3306 48.2165C83.4022 48.2416 83.468 48.2825 83.5217 48.3358C83.5754 48.3892 83.6169 48.4539 83.6425 48.5251C83.6674 48.5963 83.6764 48.6722 83.6687 48.7473V49.3803C83.6776 49.4556 83.67 49.532 83.6451 49.6038C83.6195 49.6756 83.5786 49.7408 83.5243 49.7944C83.4699 49.8482 83.4041 49.8889 83.3319 49.9136C83.2597 49.9384 83.1824 49.9464 83.1063 49.9372H73.4566C73.3806 49.9464 73.3033 49.9384 73.231 49.9136C73.1582 49.8889 73.0924 49.8482 73.038 49.7944C72.9844 49.7408 72.9428 49.6756 72.9179 49.6038C72.893 49.532 72.8847 49.4556 72.8943 49.3803V29.0385C72.8847 28.9631 72.893 28.8866 72.9179 28.8149C72.9428 28.7432 72.9844 28.678 73.038 28.6242C73.0924 28.5706 73.1582 28.5298 73.231 28.5051C73.3033 28.4804 73.3806 28.4723 73.4566 28.4815H83.1063Z" fill="#404041"/>
<path d="M106.86 28.4815C106.935 28.4747 107.011 28.4844 107.083 28.5101C107.155 28.5356 107.219 28.5764 107.273 28.6296C107.326 28.6827 107.367 28.7469 107.394 28.8175C107.419 28.8882 107.429 28.9636 107.422 29.0385V29.6714C107.429 29.7463 107.419 29.8216 107.394 29.8923C107.367 29.963 107.326 30.0272 107.273 30.0803C107.219 30.1334 107.155 30.1742 107.083 30.1998C107.011 30.2254 106.935 30.2351 106.86 30.2284H100.91V49.3866C100.917 49.4614 100.907 49.5368 100.882 49.6075C100.855 49.6782 100.814 49.7423 100.761 49.7955C100.707 49.8486 100.643 49.8894 100.571 49.915C100.499 49.9406 100.423 49.9503 100.348 49.9435H99.5555C99.4795 49.9527 99.4022 49.9447 99.33 49.9199C99.2571 49.8952 99.1913 49.8544 99.137 49.8008C99.0833 49.7471 99.0417 49.6819 99.0168 49.6101C98.9919 49.5384 98.9836 49.4619 98.9932 49.3866V30.2157H93.0436C92.9675 30.2249 92.8902 30.2168 92.818 30.1921C92.7452 30.1673 92.6793 30.1266 92.625 30.0729C92.5713 30.0192 92.5298 29.9541 92.5049 29.8823C92.48 29.8105 92.4716 29.7341 92.4812 29.6587V29.0258C92.4716 28.9504 92.48 28.874 92.5049 28.8023C92.5298 28.7305 92.5713 28.6653 92.625 28.6116C92.6793 28.5579 92.7452 28.5172 92.818 28.4925C92.8902 28.4677 92.9675 28.4596 93.0436 28.4689L106.86 28.4815Z" fill="#404041"/>
</g>
<defs>
<clipPath id="clip0_71_3">
<rect width="108" height="50" fill="white"/>
</clipPath>
</defs>
</svg>
